<?xml version="1.0" standalone="no"?><!DOCTYPE svg PUBLIC "-//W3C//DTD SVG 1.1//EN" "http://www.w3.org/Graphics/SVG/1.1/DTD/svg11.dtd"><svg t="1730637418792" class="icon" viewBox="0 0 1040 1024" version="1.1" xmlns="http://www.w3.org/2000/svg" p-id="6175" xmlns:xlink="http://www.w3.org/1999/xlink" width="203.125" height="200"><path d="M259.006093 792.836542a19.328048 19.328048 0 0 1-19.328048-12.756512v-1.739524a19.328048 19.328048 0 0 1 15.655719-22.613817c44.647792-11.596829 65.328803-42.135145 64.748962-93.741034v-148.246131c0-4.638732 1.739524-15.075878 17.975085-16.815402h1.159683a19.328048 19.328048 0 0 1 17.975085 16.235561 19.328048 19.328048 0 0 1 16.04228-9.084183h86.782937c5.218573 0 13.336353 3.86561 15.075878 17.201963v1.159683c-1.739524 14.496036-11.596829 16.235561-15.65572 16.235561h-28.605511v82.724046h19.328048a18.168365 18.168365 0 0 1 16.235561 17.395244v1.159683c-1.739524 15.655719-12.756512 17.395243-16.815402 17.395243h-19.328049v91.421669h31.698a16.428841 16.428841 0 0 1 16.815402 17.395243v1.159683a19.328048 19.328048 0 0 1-16.235561 19.328049h-106.304266a17.395243 17.395243 0 0 1-16.23556-19.328049 16.04228 16.04228 0 0 1 17.395243-17.975085h36.916573v-90.841827h-22.613817a15.655719 15.655719 0 0 1-15.462439-9.277463v12.176671c4.445451 65.522084-25.513024 109.396753-89.102302 130.850887a57.984145 57.984145 0 0 1-8.117781 1.159683z m96.640242-261.701774v100.699132a16.235561 16.235561 0 0 1 14.882597-9.857305h22.613817v-83.303888h-20.294451a17.201963 17.201963 0 0 1-16.622122-7.537939zM183.819985 772.542091a19.328048 19.328048 0 0 1-19.328048-13.916194v-1.159683c-1.159683-5.798414 1.159683-14.496036 15.075878-19.328049h1.159683a120.607022 120.607022 0 0 0 25.513023-7.537938v-86.009816h-14.689316a16.04228 16.04228 0 0 1-17.395244-16.815402 16.622122 16.622122 0 0 1 16.235561-17.975085h15.075877v-73.446583h-16.815402a16.04228 16.04228 0 0 1-17.395243-16.815402 16.622122 16.622122 0 0 1 16.235561-17.975085h77.312193a17.395243 17.395243 0 0 1 15.075877 17.395243 16.428841 16.428841 0 0 1 16.235561-13.336353 16.622122 16.622122 0 0 1 19.328048 15.075878V521.857305c0 29.571914-2.319366 57.984145-4.05889 83.883729a499.82333 499.82333 0 0 1-10.437146 70.740657v1.159683a20.294451 20.294451 0 0 1-22.420536 14.496036 16.815402 16.815402 0 0 1-11.016987-6.958097 21.260853 21.260853 0 0 1-1.159683-16.235561c2.319366-10.437146 4.05889-21.454134 5.798414-33.630804a14.882597 14.882597 0 0 1-13.916195 8.697622h-16.815402v67.068328a36.336731 36.336731 0 0 0 3.479049-2.319366 77.312193 77.312193 0 0 0 9.277463-5.025293 17.588524 17.588524 0 0 1 25.513024 1.159683v1.159683a17.781804 17.781804 0 0 1-3.479049 24.739902 243.340128 243.340128 0 0 1-90.261985 41.748584z m57.984145-162.742167h17.395244a16.622122 16.622122 0 0 1 14.496036 13.916195l1.739524-17.395243c2.319366-21.840695 4.05889-49.673084 5.218573-83.303888v-1.739525a15.075878 15.075878 0 0 1-15.655719 14.496036h-23.193658z m0 0" p-id="6176" fill="#13227a"></path><path d="M636.096316 1024H29.77544A30.731597 30.731597 0 0 1 0.010246 992.495281V31.504719A30.731597 30.731597 0 0 1 29.77544 0h980.705172a30.731597 30.731597 0 0 1 29.765194 31.504719v500.789732a29.958475 29.958475 0 1 1-59.723669 0V62.816157H59.733915v898.367686h576.362401a31.504719 31.504719 0 0 1 0 62.816157z" p-id="6177" fill="#13227a"></path><path d="M293.6033 16.235561m32.857682 0l3.092488 0q32.857682 0 32.857682 32.857682l0 121.186863q0 32.857682-32.857682 32.857682l-3.092488 0q-32.857682 0-32.857682-32.857682l0-121.186863q0-32.857682 32.857682-32.857682Z" p-id="6178" fill="#13227a"></path><path d="M713.408509 16.235561m31.311439 0l0.19328 0q31.311438 0 31.311438 31.311438l0 133.363533q0 31.311438-31.311438 31.311439l-0.19328 0q-31.311438 0-31.311439-31.311439l0-133.363533q0-31.311438 31.311439-31.311438Z" p-id="6179" fill="#13227a"></path><path d="M27.842635 249.718384h987.85655v68.807852H27.842635zM814.107641 747.029068a154.624387 154.624387 0 1 1 154.624387-154.624387 154.624387 154.624387 0 0 1-154.624387 154.624387z m0-241.020763a86.203096 86.203096 0 1 0 86.009815 86.009815 86.203096 86.203096 0 0 0-86.009815-86.009815z" p-id="6180" fill="#13227a"></path><path d="M633.197109 1024a34.597206 34.597206 0 0 1-31.697999-21.067573 226.331446 226.331446 0 0 1-17.975085-88.909022 228.457531 228.457531 0 1 1 440.09966 85.816535 34.403926 34.403926 0 0 1-63.78256-25.899585 159.84296 159.84296 0 0 0-147.859569-219.566629 159.84296 159.84296 0 0 0-159.649679 159.649679 158.296716 158.296716 0 0 0 12.563231 61.849755 34.210646 34.210646 0 0 1-19.328048 45.034352 32.471121 32.471121 0 0 1-12.369951 3.092488z" p-id="6181" fill="#13227a"></path></svg>