<?xml version="1.0" standalone="no"?><!DOCTYPE svg PUBLIC "-//W3C//DTD SVG 1.1//EN" "http://www.w3.org/Graphics/SVG/1.1/DTD/svg11.dtd"><svg t="1730637470884" class="icon" viewBox="0 0 1024 1024" version="1.1" xmlns="http://www.w3.org/2000/svg" p-id="7387" xmlns:xlink="http://www.w3.org/1999/xlink" width="200" height="200"><path d="M512 512m-512 0a512 512 0 1 0 1024 0 512 512 0 1 0-1024 0Z" fill="#0D9613" p-id="7388"></path><path d="M753.301662 633.115569H716.012308a73.255385 73.255385 0 0 0-72.625231-64.118154 73.255385 73.255385 0 0 0-72.656739 64.118154h-28.120615a27.490462 27.490462 0 0 1-27.474708-27.490461V358.305477c0-15.170954 12.303754-27.474708 27.474708-27.474708h210.691939c15.170954 0 27.474708 12.288 27.474707 27.474708v247.335385c0 15.170954-12.303754 27.474708-27.474707 27.474707z m-283.963077 0h-18.951877a73.255385 73.255385 0 0 0-72.656739-64.118154 73.255385 73.255385 0 0 0-72.640984 64.118154h-18.951877c-10.113969 0-18.321723-8.192-18.321723-18.321723v-100.7616c0-36.611938 62.653046-128.236308 91.592861-128.236308h109.930339c10.113969 0 18.321723 8.192 18.321723 18.321724v210.676184c0 10.113969-8.207754 18.321723-18.321723 18.321723z m-36.643447-201.5232s-28.8768-1.339077-63.535261 0c-14.777108 0.567138-55.548062 54.508308-55.548062 82.439877v9.152985h119.083323v-91.592862z m-54.965169 164.879754a45.796431 45.796431 0 1 1 0 91.592862 45.796431 45.796431 0 0 1 0-91.592862z m267.941416 0a48.096492 48.096492 0 1 1 0 96.177231 48.096492 48.096492 0 0 1 0-96.177231z" fill="#FFFFFF" p-id="7389"></path></svg>